<svg xmlns="http://www.w3.org/2000/svg" width="1200" height="630" viewBox="0 0 1200 630">
<defs><radialGradient id="g" cx="20%" cy="0%" r="90%">
<stop offset="0%" stop-color="#0a1424"/><stop offset="55%" stop-color="#060709"/><stop offset="100%" stop-color="#030305"/>
</radialGradient></defs>
<rect width="1200" height="630" fill="url(#g)"/>
<line x1="663" y1="154" x2="762" y2="99" stroke="#00c3ff" stroke-opacity="0.03" stroke-width="1"/><line x1="808" y1="49" x2="869" y2="60" stroke="#00c3ff" stroke-opacity="0.07" stroke-width="1"/><line x1="808" y1="49" x2="858" y2="147" stroke="#00c3ff" stroke-opacity="0.03" stroke-width="1"/><line x1="808" y1="49" x2="762" y2="99" stroke="#00c3ff" stroke-opacity="0.07" stroke-width="1"/><line x1="808" y1="49" x2="863" y2="40" stroke="#00c3ff" stroke-opacity="0.08" stroke-width="1"/><line x1="148" y1="548" x2="185" y2="564" stroke="#00c3ff" stroke-opacity="0.09" stroke-width="1"/><line x1="148" y1="548" x2="126" y2="590" stroke="#00c3ff" stroke-opacity="0.08" stroke-width="1"/><line x1="148" y1="548" x2="95" y2="570" stroke="#00c3ff" stroke-opacity="0.07" stroke-width="1"/><line x1="148" y1="548" x2="211" y2="595" stroke="#00c3ff" stroke-opacity="0.06" stroke-width="1"/><line x1="148" y1="548" x2="158" y2="571" stroke="#00c3ff" stroke-opacity="0.10" stroke-width="1"/><line x1="192" y1="374" x2="143" y2="246" stroke="#00c3ff" stroke-opacity="0.01" stroke-width="1"/><line x1="192" y1="374" x2="272" y2="296" stroke="#00c3ff" stroke-opacity="0.03" stroke-width="1"/><line x1="192" y1="374" x2="337" y2="350" stroke="#00c3ff" stroke-opacity="0.00" stroke-width="1"/><line x1="1193" y1="59" x2="1158" y2="126" stroke="#00c3ff" stroke-opacity="0.06" stroke-width="1"/><line x1="1193" y1="59" x2="1107" y2="120" stroke="#00c3ff" stroke-opacity="0.04" stroke-width="1"/><line x1="1193" y1="59" x2="1147" y2="185" stroke="#00c3ff" stroke-opacity="0.01" stroke-width="1"/><line x1="1193" y1="59" x2="1169" y2="192" stroke="#00c3ff" stroke-opacity="0.01" stroke-width="1"/><line x1="1193" y1="59" x2="1121" y2="64" stroke="#00c3ff" stroke-opacity="0.06" stroke-width="1"/><line x1="1193" y1="59" x2="1155" y2="61" stroke="#00c3ff" stroke-opacity="0.09" stroke-width="1"/><line x1="1039" y1="219" x2="1107" y2="120" stroke="#00c3ff" stroke-opacity="0.02" stroke-width="1"/><line x1="1039" y1="219" x2="1147" y2="185" stroke="#00c3ff" stroke-opacity="0.03" stroke-width="1"/><line x1="1039" y1="219" x2="1169" y2="192" stroke="#00c3ff" stroke-opacity="0.01" stroke-width="1"/><line x1="76" y1="88" x2="101" y2="226" stroke="#00c3ff" stroke-opacity="0.01" stroke-width="1"/><line x1="76" y1="88" x2="149" y2="120" stroke="#00c3ff" stroke-opacity="0.06" stroke-width="1"/><line x1="143" y1="246" x2="101" y2="226" stroke="#00c3ff" stroke-opacity="0.08" stroke-width="1"/><line x1="143" y1="246" x2="272" y2="296" stroke="#00c3ff" stroke-opacity="0.01" stroke-width="1"/><line x1="143" y1="246" x2="149" y2="120" stroke="#00c3ff" stroke-opacity="0.02" stroke-width="1"/><line x1="185" y1="564" x2="126" y2="590" stroke="#00c3ff" stroke-opacity="0.07" stroke-width="1"/><line x1="185" y1="564" x2="95" y2="570" stroke="#00c3ff" stroke-opacity="0.05" stroke-width="1"/><line x1="185" y1="564" x2="211" y2="595" stroke="#00c3ff" stroke-opacity="0.09" stroke-width="1"/><line x1="185" y1="564" x2="311" y2="500" stroke="#00c3ff" stroke-opacity="0.01" stroke-width="1"/><line x1="185" y1="564" x2="158" y2="571" stroke="#00c3ff" stroke-opacity="0.10" stroke-width="1"/><line x1="869" y1="60" x2="858" y2="147" stroke="#00c3ff" stroke-opacity="0.05" stroke-width="1"/><line x1="869" y1="60" x2="762" y2="99" stroke="#00c3ff" stroke-opacity="0.03" stroke-width="1"/><line x1="869" y1="60" x2="863" y2="40" stroke="#00c3ff" stroke-opacity="0.10" stroke-width="1"/><line x1="1158" y1="126" x2="1107" y2="120" stroke="#00c3ff" stroke-opacity="0.08" stroke-width="1"/><line x1="1158" y1="126" x2="1147" y2="185" stroke="#00c3ff" stroke-opacity="0.07" stroke-width="1"/><line x1="1158" y1="126" x2="1169" y2="192" stroke="#00c3ff" stroke-opacity="0.07" stroke-width="1"/><line x1="1158" y1="126" x2="1121" y2="64" stroke="#00c3ff" stroke-opacity="0.06" stroke-width="1"/><line x1="1158" y1="126" x2="1155" y2="61" stroke="#00c3ff" stroke-opacity="0.07" stroke-width="1"/><line x1="457" y1="596" x2="421" y2="508" stroke="#00c3ff" stroke-opacity="0.04" stroke-width="1"/><line x1="457" y1="596" x2="589" y2="623" stroke="#00c3ff" stroke-opacity="0.01" stroke-width="1"/><line x1="126" y1="590" x2="95" y2="570" stroke="#00c3ff" stroke-opacity="0.09" stroke-width="1"/><line x1="126" y1="590" x2="211" y2="595" stroke="#00c3ff" stroke-opacity="0.05" stroke-width="1"/><line x1="126" y1="590" x2="158" y2="571" stroke="#00c3ff" stroke-opacity="0.09" stroke-width="1"/><line x1="1199" y1="406" x2="1169" y2="315" stroke="#00c3ff" stroke-opacity="0.04" stroke-width="1"/><line x1="1199" y1="406" x2="1088" y2="437" stroke="#00c3ff" stroke-opacity="0.03" stroke-width="1"/><line x1="1199" y1="406" x2="1199" y2="464" stroke="#00c3ff" stroke-opacity="0.07" stroke-width="1"/><line x1="1199" y1="406" x2="1176" y2="307" stroke="#00c3ff" stroke-opacity="0.04" stroke-width="1"/><line x1="1199" y1="406" x2="1173" y2="321" stroke="#00c3ff" stroke-opacity="0.05" stroke-width="1"/><line x1="101" y1="226" x2="149" y2="120" stroke="#00c3ff" stroke-opacity="0.03" stroke-width="1"/><line x1="95" y1="570" x2="211" y2="595" stroke="#00c3ff" stroke-opacity="0.03" stroke-width="1"/><line x1="95" y1="570" x2="158" y2="571" stroke="#00c3ff" stroke-opacity="0.07" stroke-width="1"/><line x1="272" y1="296" x2="337" y2="350" stroke="#00c3ff" stroke-opacity="0.05" stroke-width="1"/><line x1="858" y1="147" x2="762" y2="99" stroke="#00c3ff" stroke-opacity="0.03" stroke-width="1"/><line x1="858" y1="147" x2="863" y2="40" stroke="#00c3ff" stroke-opacity="0.03" stroke-width="1"/><line x1="1107" y1="120" x2="1147" y2="185" stroke="#00c3ff" stroke-opacity="0.06" stroke-width="1"/><line x1="1107" y1="120" x2="1169" y2="192" stroke="#00c3ff" stroke-opacity="0.04" stroke-width="1"/><line x1="1107" y1="120" x2="1121" y2="64" stroke="#00c3ff" stroke-opacity="0.07" stroke-width="1"/><line x1="1107" y1="120" x2="1155" y2="61" stroke="#00c3ff" stroke-opacity="0.06" stroke-width="1"/><line x1="1169" y1="315" x2="1147" y2="185" stroke="#00c3ff" stroke-opacity="0.01" stroke-width="1"/><line x1="1169" y1="315" x2="1169" y2="192" stroke="#00c3ff" stroke-opacity="0.02" stroke-width="1"/><line x1="1169" y1="315" x2="1088" y2="437" stroke="#00c3ff" stroke-opacity="0.00" stroke-width="1"/><line x1="1169" y1="315" x2="1176" y2="307" stroke="#00c3ff" stroke-opacity="0.11" stroke-width="1"/><line x1="1169" y1="315" x2="1173" y2="321" stroke="#00c3ff" stroke-opacity="0.11" stroke-width="1"/><line x1="1147" y1="185" x2="1169" y2="192" stroke="#00c3ff" stroke-opacity="0.10" stroke-width="1"/><line x1="1147" y1="185" x2="1121" y2="64" stroke="#00c3ff" stroke-opacity="0.02" stroke-width="1"/><line x1="1147" y1="185" x2="1155" y2="61" stroke="#00c3ff" stroke-opacity="0.02" stroke-width="1"/><line x1="1147" y1="185" x2="1176" y2="307" stroke="#00c3ff" stroke-opacity="0.02" stroke-width="1"/><line x1="1147" y1="185" x2="1173" y2="321" stroke="#00c3ff" stroke-opacity="0.01" stroke-width="1"/><line x1="211" y1="595" x2="311" y2="500" stroke="#00c3ff" stroke-opacity="0.01" stroke-width="1"/><line x1="211" y1="595" x2="158" y2="571" stroke="#00c3ff" stroke-opacity="0.07" stroke-width="1"/><line x1="1169" y1="192" x2="1121" y2="64" stroke="#00c3ff" stroke-opacity="0.01" stroke-width="1"/><line x1="1169" y1="192" x2="1155" y2="61" stroke="#00c3ff" stroke-opacity="0.01" stroke-width="1"/><line x1="1169" y1="192" x2="1176" y2="307" stroke="#00c3ff" stroke-opacity="0.03" stroke-width="1"/><line x1="1169" y1="192" x2="1173" y2="321" stroke="#00c3ff" stroke-opacity="0.02" stroke-width="1"/><line x1="762" y1="99" x2="863" y2="40" stroke="#00c3ff" stroke-opacity="0.03" stroke-width="1"/><line x1="1121" y1="64" x2="1155" y2="61" stroke="#00c3ff" stroke-opacity="0.09" stroke-width="1"/><line x1="421" y1="508" x2="311" y2="500" stroke="#00c3ff" stroke-opacity="0.03" stroke-width="1"/><line x1="1088" y1="437" x2="1199" y2="464" stroke="#00c3ff" stroke-opacity="0.03" stroke-width="1"/><line x1="1088" y1="437" x2="1075" y2="506" stroke="#00c3ff" stroke-opacity="0.06" stroke-width="1"/><line x1="1088" y1="437" x2="1048" y2="428" stroke="#00c3ff" stroke-opacity="0.09" stroke-width="1"/><line x1="1088" y1="437" x2="1173" y2="321" stroke="#00c3ff" stroke-opacity="0.00" stroke-width="1"/><line x1="643" y1="476" x2="703" y2="459" stroke="#00c3ff" stroke-opacity="0.07" stroke-width="1"/><line x1="643" y1="476" x2="696" y2="358" stroke="#00c3ff" stroke-opacity="0.02" stroke-width="1"/><line x1="1199" y1="464" x2="1075" y2="506" stroke="#00c3ff" stroke-opacity="0.02" stroke-width="1"/><line x1="1199" y1="464" x2="1173" y2="321" stroke="#00c3ff" stroke-opacity="0.00" stroke-width="1"/><line x1="740" y1="306" x2="696" y2="358" stroke="#00c3ff" stroke-opacity="0.07" stroke-width="1"/><line x1="508" y1="184" x2="499" y2="83" stroke="#00c3ff" stroke-opacity="0.04" stroke-width="1"/><line x1="1176" y1="307" x2="1173" y2="321" stroke="#00c3ff" stroke-opacity="0.11" stroke-width="1"/><line x1="1075" y1="506" x2="1048" y2="428" stroke="#00c3ff" stroke-opacity="0.05" stroke-width="1"/><line x1="703" y1="459" x2="696" y2="358" stroke="#00c3ff" stroke-opacity="0.04" stroke-width="1"/><circle cx="663" cy="154" r="2.4" fill="#E8726A" fill-opacity="0.6"/><circle cx="808" cy="49" r="1.8" fill="#7fb0d8" fill-opacity="0.4"/><circle cx="148" cy="548" r="1.8" fill="#7fb0d8" fill-opacity="0.4"/><circle cx="192" cy="374" r="1.8" fill="#7fb0d8" fill-opacity="0.4"/><circle cx="1193" cy="59" r="1.8" fill="#7fb0d8" fill-opacity="0.4"/><circle cx="1039" cy="219" r="1.8" fill="#7fb0d8" fill-opacity="0.4"/><circle cx="76" cy="88" r="2.4" fill="#E8726A" fill-opacity="0.6"/><circle cx="888" cy="428" r="1.8" fill="#7fb0d8" fill-opacity="0.4"/><circle cx="143" cy="246" r="1.8" fill="#7fb0d8" fill-opacity="0.4"/><circle cx="185" cy="564" r="1.8" fill="#7fb0d8" fill-opacity="0.4"/><circle cx="869" cy="60" r="1.8" fill="#7fb0d8" fill-opacity="0.4"/><circle cx="1158" cy="126" r="1.8" fill="#7fb0d8" fill-opacity="0.4"/><circle cx="457" cy="596" r="2.4" fill="#E8726A" fill-opacity="0.6"/><circle cx="126" cy="590" r="1.8" fill="#7fb0d8" fill-opacity="0.4"/><circle cx="1199" cy="406" r="1.8" fill="#7fb0d8" fill-opacity="0.4"/><circle cx="101" cy="226" r="1.8" fill="#7fb0d8" fill-opacity="0.4"/><circle cx="95" cy="570" r="1.8" fill="#7fb0d8" fill-opacity="0.4"/><circle cx="272" cy="296" r="1.8" fill="#7fb0d8" fill-opacity="0.4"/><circle cx="858" cy="147" r="2.4" fill="#E8726A" fill-opacity="0.6"/><circle cx="1107" cy="120" r="1.8" fill="#7fb0d8" fill-opacity="0.4"/><circle cx="1169" cy="315" r="1.8" fill="#7fb0d8" fill-opacity="0.4"/><circle cx="1147" cy="185" r="1.8" fill="#7fb0d8" fill-opacity="0.4"/><circle cx="211" cy="595" r="1.8" fill="#7fb0d8" fill-opacity="0.4"/><circle cx="1169" cy="192" r="1.8" fill="#7fb0d8" fill-opacity="0.4"/><circle cx="762" cy="99" r="2.4" fill="#E8726A" fill-opacity="0.6"/><circle cx="1121" cy="64" r="1.8" fill="#7fb0d8" fill-opacity="0.4"/><circle cx="1155" cy="61" r="1.8" fill="#7fb0d8" fill-opacity="0.4"/><circle cx="421" cy="508" r="1.8" fill="#7fb0d8" fill-opacity="0.4"/><circle cx="1088" cy="437" r="1.8" fill="#7fb0d8" fill-opacity="0.4"/><circle cx="643" cy="476" r="1.8" fill="#7fb0d8" fill-opacity="0.4"/><circle cx="1199" cy="464" r="2.4" fill="#E8726A" fill-opacity="0.6"/><circle cx="740" cy="306" r="1.8" fill="#7fb0d8" fill-opacity="0.4"/><circle cx="508" cy="184" r="1.8" fill="#7fb0d8" fill-opacity="0.4"/><circle cx="499" cy="83" r="1.8" fill="#7fb0d8" fill-opacity="0.4"/><circle cx="1176" cy="307" r="1.8" fill="#7fb0d8" fill-opacity="0.4"/><circle cx="1075" cy="506" r="1.8" fill="#7fb0d8" fill-opacity="0.4"/><circle cx="703" cy="459" r="2.4" fill="#E8726A" fill-opacity="0.6"/><circle cx="589" cy="623" r="1.8" fill="#7fb0d8" fill-opacity="0.4"/><circle cx="149" cy="120" r="1.8" fill="#7fb0d8" fill-opacity="0.4"/><circle cx="1048" cy="428" r="1.8" fill="#7fb0d8" fill-opacity="0.4"/><circle cx="337" cy="350" r="1.8" fill="#7fb0d8" fill-opacity="0.4"/><circle cx="311" cy="500" r="1.8" fill="#7fb0d8" fill-opacity="0.4"/><circle cx="863" cy="40" r="2.4" fill="#E8726A" fill-opacity="0.6"/><circle cx="158" cy="571" r="1.8" fill="#7fb0d8" fill-opacity="0.4"/><circle cx="1173" cy="321" r="1.8" fill="#7fb0d8" fill-opacity="0.4"/><circle cx="696" cy="358" r="1.8" fill="#7fb0d8" fill-opacity="0.4"/>
<circle cx="74" cy="120" r="9" fill="#E8726A"/>
<text x="96" y="129" font-family="DejaVu Sans Mono, monospace" font-size="34" font-weight="bold" fill="#eaf7ff" letter-spacing="2">AI NEWS <tspan fill="#00c3ff">MONITOR</tspan></text>
<text x="70" y="232" font-family="DejaVu Sans, sans-serif" font-size="62" font-weight="bold" fill="#ffffff">Everything new in AI,</text>
<text x="70" y="304" font-family="DejaVu Sans, sans-serif" font-size="62" font-weight="bold" fill="#ffffff">on one screen.</text>
<text x="70" y="366" font-family="DejaVu Sans, sans-serif" font-size="26" fill="#9fc4dd">A daily radar across labs, research, GitHub, robotics, policy &amp; more —</text>
<text x="70" y="402" font-family="DejaVu Sans, sans-serif" font-size="26" fill="#9fc4dd">sorted into 15 topics, refreshed every morning.</text>
<rect x="70" y="468" width="143" height="40" rx="9" fill="#0e1626" stroke="#00c3ff" stroke-opacity="0.25"/><text x="141.5" y="494" font-family="DejaVu Sans, sans-serif" font-size="17" fill="#bfe0f5" text-anchor="middle">Big Players</text><rect x="227" y="468" width="88" height="40" rx="9" fill="#0e1626" stroke="#00c3ff" stroke-opacity="0.25"/><text x="271.0" y="494" font-family="DejaVu Sans, sans-serif" font-size="17" fill="#bfe0f5" text-anchor="middle">Models</text><rect x="329" y="468" width="88" height="40" rx="9" fill="#0e1626" stroke="#00c3ff" stroke-opacity="0.25"/><text x="373.0" y="494" font-family="DejaVu Sans, sans-serif" font-size="17" fill="#bfe0f5" text-anchor="middle">Agents</text><rect x="431" y="468" width="110" height="40" rx="9" fill="#0e1626" stroke="#00c3ff" stroke-opacity="0.25"/><text x="486.0" y="494" font-family="DejaVu Sans, sans-serif" font-size="17" fill="#bfe0f5" text-anchor="middle">Robotics</text><rect x="555" y="468" width="132" height="40" rx="9" fill="#0e1626" stroke="#00c3ff" stroke-opacity="0.25"/><text x="621.0" y="494" font-family="DejaVu Sans, sans-serif" font-size="17" fill="#bfe0f5" text-anchor="middle">Autonomous</text><rect x="701" y="468" width="88" height="40" rx="9" fill="#0e1626" stroke="#00c3ff" stroke-opacity="0.25"/><text x="745.0" y="494" font-family="DejaVu Sans, sans-serif" font-size="17" fill="#bfe0f5" text-anchor="middle">GitHub</text><rect x="803" y="468" width="110" height="40" rx="9" fill="#0e1626" stroke="#00c3ff" stroke-opacity="0.25"/><text x="858.0" y="494" font-family="DejaVu Sans, sans-serif" font-size="17" fill="#bfe0f5" text-anchor="middle">Research</text><rect x="927" y="468" width="88" height="40" rx="9" fill="#0e1626" stroke="#00c3ff" stroke-opacity="0.25"/><text x="971.0" y="494" font-family="DejaVu Sans, sans-serif" font-size="17" fill="#bfe0f5" text-anchor="middle">Safety</text>
<text x="1130" y="120" font-family="DejaVu Sans Mono, monospace" font-size="86" font-weight="bold" fill="#E8726A" text-anchor="end">290</text>
<text x="1130" y="150" font-family="DejaVu Sans Mono, monospace" font-size="20" fill="#8aa0b5" text-anchor="end" letter-spacing="3">NEW TODAY</text>
<text x="70" y="574" font-family="DejaVu Sans Mono, monospace" font-size="20" fill="#5f7488">sofon.diusai.org/ainews   ·   powered by Gemini   ·   DiusAi</text>
</svg>